<svg xmlns="http://www.w3.org/2000/svg" viewBox="0 0 400 300" fill="none">
  <rect width="400" height="300" fill="#143620" rx="12"/>
  <ellipse cx="200" cy="250" rx="100" ry="16" fill="#0a1f10" opacity="0.6"/>
  <path d="M120 200c0-44 36-80 80-80s80 36 80 80v30H120v-30z" fill="#d4a056"/>
  <path d="M135 200c0-36 29-65 65-65s65 29 65 65v15H135v-15z" fill="#e8b85c"/>
  <path d="M155 160c20-15 50-15 70 0" stroke="#c79a4e" stroke-width="4" stroke-linecap="round"/>
  <circle cx="165" cy="175" r="5" fill="#a8351f"/>
  <circle cx="235" cy="175" r="5" fill="#a8351f"/>
  <circle cx="200" cy="165" r="5" fill="#3fae5c"/>
  <path d="M150 215h100v20a10 10 0 0 1-10 10H160a10 10 0 0 1-10-10v-20z" fill="#f4d03f"/>
  <path d="M150 215q25 10 50 0t50 0" stroke="#d4a056" stroke-width="3" fill="none"/>
  <path d="M170 235h60" stroke="#f4d03f" stroke-width="6" stroke-linecap="round"/>
  <text x="200" y="95" text-anchor="middle" font-family="sans-serif" font-size="16" fill="#f4f1e5" font-weight="600" letter-spacing="1">CHEESE POCKETS</text>
</svg>
