<svg xmlns="http://www.w3.org/2000/svg" viewBox="0 0 400 300" fill="none">
  <rect width="400" height="300" fill="#143620" rx="12"/>
  <ellipse cx="200" cy="245" rx="120" ry="18" fill="#0a1f10" opacity="0.6"/>
  <path d="M80 170h240a16 16 0 0 1 16 16v18a16 16 0 0 1-16 16H80a16 16 0 0 1-16-16v-18a16 16 0 0 1 16-16z" fill="#c79a4e"/>
  <path d="M70 178h260" stroke="#a67c3d" stroke-width="6" stroke-linecap="round"/>
  <path d="M95 150h210c8 0 14 6 12 14l-8 28H91l-8-28c-2-8 4-14 12-14z" fill="#a8351f"/>
  <path d="M85 132h230c10 0 16 8 14 18l-6 20H77l-6-20c-2-10 4-18 14-18z" fill="#f4d03f"/>
  <path d="M90 115h220c12 0 18 10 16 22l-4 12H78l-4-12c-2-12 4-22 16-22z" fill="#5d3a1a"/>
  <path d="M110 118h180" stroke="#3d2412" stroke-width="4" stroke-linecap="round" stroke-dasharray="8 10"/>
  <path d="M80 178h240" stroke="#e8b84e" stroke-width="5" stroke-linecap="round"/>
  <path d="M180 75l20-35 20 35h-40z" fill="#f4cc46" stroke="#c79a4e" stroke-width="4" stroke-linejoin="round"/>
  <circle cx="200" cy="82" r="10" fill="#f4cc46" stroke="#c79a4e" stroke-width="3"/>
  <text x="200" y="108" text-anchor="middle" font-family="serif" font-size="18" fill="#143620" font-weight="bold">SPECIAL</text>
</svg>
